HIERARCHY
ROOT Hips
{
  OFFSET 0 89.5177 0.535
  CHANNELS 6 Xposition Yposition Zposition Zrotation Xrotation Yrotation
  JOINT Spine
  {
    OFFSET 12.0259 -0.162855 1.69034e-005
    CHANNELS 3 Zrotation Xrotation Yrotation
    JOINT Spine1
    {
      OFFSET 15.3169 -0.0121922 0
      CHANNELS 3 Zrotation Xrotation Yrotation
      JOINT Spine2
      {
        OFFSET 15.3176 -0.0121908 0
        CHANNELS 3 Zrotation Xrotation Yrotation
        JOINT Neck
        {
          OFFSET 19.9142 1.56338 0
          CHANNELS 3 Zrotation Xrotation Yrotation
          JOINT Head
          {
            OFFSET 6.92651 0 0
            CHANNELS 3 Zrotation Xrotation Yrotation
            End Site
            {
              OFFSET 20.7666 0 0
            }
          }
          JOINT LeftShoulder
          {
            OFFSET -6.20654 0.708824 7.28219
            CHANNELS 3 Zrotation Xrotation Yrotation
            JOINT LeftArm
            {
              OFFSET 14.108 0 -1.52588e-005
              CHANNELS 3 Zrotation Xrotation Yrotation
              JOINT LeftForeArm
              {
                OFFSET 28.5802 0 0
                CHANNELS 3 Zrotation Xrotation Yrotation
                JOINT LeftHand
                {
                  OFFSET 27.092 0 0
                  CHANNELS 3 Zrotation Xrotation Yrotation
                  End Site
                  {
                    OFFSET 9.55928 -0.186424 0.145352
                  }
                }
              }
            }
          }
          JOINT RightShoulder
          {
            OFFSET -6.20654 0.708866 -7.28218
            CHANNELS 3 Zrotation Xrotation Yrotation
            JOINT RightArm
            {
              OFFSET 14.108 0 1.52588e-005
              CHANNELS 3 Zrotation Xrotation Yrotation
              JOINT RightForeArm
              {
                OFFSET 28.5802 0 0
                CHANNELS 3 Zrotation Xrotation Yrotation
                JOINT RightHand
                {
                  OFFSET 27.092 0 0
                  CHANNELS 3 Zrotation Xrotation Yrotation
                  End Site
                  {
                    OFFSET 9.55929 -0.186417 -0.145354
                  }
                }
              }
            }
          }
        }
      }
    }
  }
  JOINT LeftUpLeg
  {
    OFFSET 0.005 -0.535 8.837
    CHANNELS 3 Zrotation Xrotation Yrotation
    JOINT LeftLeg
    {
      OFFSET 39.9035 0 0
      CHANNELS 3 Zrotation Xrotation Yrotation
      JOINT LeftFoot
      {
        OFFSET 39.6689 0 0
        CHANNELS 3 Zrotation Xrotation Yrotation
        JOINT LeftToe
        {
          OFFSET 10.1624 13.6296 0
          CHANNELS 3 Zrotation Xrotation Yrotation
          End Site
          {
            OFFSET 8.38147 0 0
          }
        }
      }
    }
  }
  JOINT RightUpLeg
  {
    OFFSET 0.005 -0.535 -8.837
    CHANNELS 3 Zrotation Xrotation Yrotation
    JOINT RightLeg
    {
      OFFSET 39.9035 0 0
      CHANNELS 3 Zrotation Xrotation Yrotation
      JOINT RightFoot
      {
        OFFSET 39.6689 0 0
        CHANNELS 3 Zrotation Xrotation Yrotation
        JOINT RightToe
        {
          OFFSET 10.1624 13.6296 0
          CHANNELS 3 Zrotation Xrotation Yrotation
          End Site
          {
            OFFSET 8.38147 0 0
          }
        }
      }
    }
  }
}
MOTION
Frames:	18
Frame Time:	0.0333333
206.642 89.6042 -56.9629 -169.096 -85.255 102.278 -0.293703 -1.75843 -0.912325 -0.615819 -3.51147 -1.83478 -0.615819 -3.51147 -1.83479 -8.30748e-012 -9.0191e-006 -5.27751e-005 8.12792 -1.90085 0.626264 -177.409 -28.4995 -84.5815 -23.894 -39.5021 7.99183 -11.8178 0 4.77083e-015 -26.5079 -54.1943 -29.8657 -178.701 20.6116 86.3135 -24.799 41.5778 -6.51507 -7.0148 -9.54166e-015 3.97569e-016 -67.253 66.9231 70.6027 -4.01579 10.5233 -179.816 -8.35596 0 3.97569e-016 10.5801 5.73879 -7.80628 90 2.98177e-016 3.97569e-016 -7.00219 -9.05747 175.551 -9.34486 -3.18056e-015 3.97569e-016 7.50134 -5.39394 6.01199 90 -3.66509e-016 -1.59028e-015 
206.665 89.602 -56.9885 -168.163 -85.2615 103.212 -0.291071 -1.75423 -0.914171 -0.610539 -3.5031 -1.83837 -0.610539 -3.5031 -1.83838 -8.30748e-012 -9.0191e-006 -5.27751e-005 8.24781 -1.88247 0.593479 -177.444 -28.5121 -84.6569 -23.7788 -39.657 7.92663 -11.8462 -3.18055e-015 -6.36111e-015 -26.6131 -54.241 -29.9814 -178.725 20.6274 86.3845 -24.7871 41.7997 -6.53193 -6.966 -9.54166e-015 -1.19271e-015 -67.3317 66.8387 70.6899 -3.90749 10.5242 -179.815 -8.23796 -1.59028e-015 5.96354e-016 10.5238 5.68633 -7.79173 90 4.22417e-016 -3.97569e-016 -7.03388 -9.04097 175.554 -9.47163 -1.59028e-015 -0 7.57618 -5.44381 6.05402 90 -6.83322e-016 -0 
206.687 89.6021 -57.003 -167.237 -85.2464 104.138 -0.291479 -1.74775 -0.914801 -0.606035 -3.49013 -1.8507 -0.606035 -3.49013 -1.85071 -8.30748e-012 -9.0191e-006 -5.27751e-005 8.32984 -1.89839 0.653627 -177.486 -28.5362 -84.7491 -23.6867 -39.7942 7.80102 -11.8669 -3.18055e-015 3.18055e-015 -26.6363 -54.2378 -30.003 -178.725 20.6441 86.3878 -24.7875 41.81 -6.48485 -6.9811 -9.54166e-015 -3.97569e-016 -67.2456 66.9066 70.6 -3.86143 10.5963 -179.803 -8.18351 -1.59028e-015 -1.98785e-016 10.5111 5.66875 -7.80481 90 -1.2424e-016 3.97569e-016 -6.96892 -8.9559 175.589 -9.37312 -1.59028e-015 -3.97569e-016 7.53404 -5.41295 5.97777 90 -2.39163e-016 -0 
206.707 89.6018 -57.0136 -166.161 -85.2231 105.2 -0.292768 -1.74716 -0.915252 -0.601818 -3.48901 -1.8506 -0.601818 -3.48901 -1.85061 -8.30828e-012 -9.0191e-006 -5.27751e-005 8.37707 -1.90336 0.69901 -177.504 -28.5321 -84.7862 -23.4465 -39.9183 7.64161 -11.9906 0 4.77083e-015 -26.6563 -54.2234 -30.0244 -178.728 20.6409 86.3968 -24.8217 41.7136 -6.42444 -7.0306 -6.36111e-015 -7.95139e-016 -67.2321 66.9073 70.5871 -3.84142 10.6676 -179.775 -8.16825 -1.59028e-015 -0 10.5076 5.65578 -7.81639 90 1.51573e-015 -7.95139e-016 -7.06153 -8.88601 175.605 -9.53698 1.59028e-015 -9.93923e-016 7.60414 -5.44617 6.06749 90 -5.80824e-016 7.95139e-016 
206.726 89.6013 -57.0159 -165.357 -85.1787 105.999 -0.29452 -1.74373 -0.915664 -0.612313 -3.48204 -1.85037 -0.612314 -3.48204 -1.85038 -8.30589e-012 -9.0191e-006 -5.27751e-005 8.4907 -1.98564 0.808234 -177.54 -28.5576 -84.8646 -23.325 -40.1328 7.44399 -12.0032 -3.18055e-015 -1.59028e-015 -26.7862 -54.285 -30.1681 -178.735 20.6596 86.4198 -24.8031 41.769 -6.45165 -7.01423 0 -7.95139e-016 -67.2195 66.9499 70.5692 -3.83823 10.7175 -179.761 -8.12422 -1.59028e-015 -0 10.4762 5.62672 -7.82169 90 -1.98785e-016 -0 -7.15709 -8.86844 175.608 -9.66636 1.59028e-015 -7.95139e-016 7.66607 -5.51019 6.13687 90 2.54693e-016 2.38542e-015 
206.743 89.6009 -57.0196 -164.209 -85.1368 107.134 -0.296406 -1.73446 -0.916178 -0.618965 -3.46346 -1.85007 -0.618965 -3.46346 -1.85008 -8.30748e-012 -9.0191e-006 -5.27751e-005 8.59507 -2.09936 0.927896 -177.58 -28.5886 -84.9516 -23.1545 -40.3049 7.28143 -12.0635 3.18055e-015 4.77083e-015 -26.7767 -54.3276 -30.1637 -178.735 20.6721 86.42 -24.8258 41.7508 -6.41919 -6.99819 -6.36111e-015 -1.19271e-015 -67.1934 66.9676 70.542 -3.83432 10.8169 -179.733 -8.10734 3.18055e-015 3.97569e-016 10.4665 5.61335 -7.82702 90 -1.83876e-015 3.97569e-016 -7.21851 -8.82325 175.629 -9.74457 0 -3.97569e-016 7.69567 -5.56103 6.18375 90 -1.05604e-015 1.59028e-015 
206.751 89.6003 -57.0216 -163.393 -85.0899 107.937 -0.298313 -1.72975 -0.916942 -0.625063 -3.45399 -1.84983 -0.625064 -3.45399 -1.84984 -8.30748e-012 -9.0191e-006 -5.27751e-005 8.73843 -2.18873 0.991474 -177.607 -28.6345 -85.0165 -23.0326 -40.3805 7.08113 -12.1178 -6.36111e-015 -0 -26.7045 -54.3551 -30.092 -178.75 20.665 86.4614 -24.7677 41.8528 -6.47577 -6.99741 1.27222e-014 -0 -67.2838 66.9203 70.6327 -3.83884 10.8615 -179.718 -8.08468 4.77083e-015 1.98785e-016 10.4564 5.59482 -7.81571 90 -1.46604e-015 1.59028e-015 -7.27614 -8.80215 175.644 -9.79611 0 -1.98785e-016 7.71457 -5.61323 6.22085 90 -1.18028e-016 7.95139e-016 
206.755 89.6 -57.0232 -162.793 -85.0632 108.532 -0.301747 -1.72317 -0.919784 -0.63156 -3.44077 -1.84972 -0.631561 -3.44077 -1.84973 -8.30589e-012 -9.0191e-006 -5.27751e-005 8.89682 -2.26674 1.0777 -177.64 -28.6735 -85.0898 -22.9805 -40.4348 6.85354 -12.1555 1.27222e-014 6.36111e-015 -26.7948 -54.3504 -30.1857 -178.747 20.6768 86.456 -24.742 41.8678 -6.48907 -6.93876 1.27222e-014 -0 -67.2443 66.9352 70.5932 -3.81207 10.8919 -179.716 -8.02498 0 -0 10.4176 5.57123 -7.79856 90 2.98177e-016 -7.95139e-016 -7.22879 -8.77445 175.672 -9.68615 -1.59028e-015 -1.19271e-015 7.65904 -5.61733 6.15324 90 1.00324e-015 -7.95139e-016 
206.751 89.5996 -57.0241 -162.531 -85.0465 108.788 -0.305132 -1.71739 -0.917315 -0.641705 -3.42912 -1.8499 -0.641705 -3.42912 -1.84991 -8.30748e-012 -9.0191e-006 -5.27751e-005 9.12058 -2.3314 1.12961 -177.693 -28.6956 -85.2045 -22.8708 -40.5211 6.76917 -12.194 6.36111e-015 -3.18055e-015 -26.7401 -54.3571 -30.1294 -178.734 20.6903 86.4222 -24.7619 41.8296 -6.42785 -6.87781 0 -0 -67.2313 66.9443 70.5789 -3.79814 10.8847 -179.72 -7.98202 -3.18055e-015 -0 10.3945 5.54144 -7.75766 90 -2.48481e-016 7.95139e-016 -7.30535 -8.76958 175.662 -9.80357 0 9.93923e-016 7.71126 -5.65819 6.23228 90 7.51655e-016 -2.38542e-015 
206.739 89.5995 -57.0203 -162.552 -85.0507 108.759 -0.307 -1.71638 -0.912043 -0.64166 -3.42729 -1.83274 -0.64166 -3.42729 -1.83275 -8.30828e-012 -9.0191e-006 -5.27751e-005 9.27468 -2.32263 1.04717 -177.727 -28.704 -85.2745 -22.7452 -40.5224 6.76014 -12.2582 -6.36111e-015 -0 -26.8454 -54.3214 -30.2348 -178.729 20.6696 86.4023 -24.7243 41.6834 -6.35468 -6.92619 -9.54166e-015 -7.95139e-016 -67.1334 67.018 70.4727 -3.80142 10.8615 -179.725 -7.99064 -1.59028e-015 3.97569e-016 10.3941 5.5282 -7.73224 90 -4.96962e-017 -0 -7.28876 -8.77779 175.665 -9.77115 -3.18056e-015 -0 7.69145 -5.65619 6.23137 90 9.81499e-016 -0 
206.721 89.5997 -57.0085 -162.866 -85.0775 108.441 -0.299964 -1.71566 -0.907154 -0.627536 -3.42658 -1.82433 -0.627536 -3.42658 -1.82434 -8.30669e-012 -9.0191e-006 -5.27751e-005 9.3766 -2.28004 0.98469 -177.743 -28.7216 -85.3116 -22.7781 -40.5385 6.70781 -12.235 -9.54166e-015 1.59028e-015 -26.9365 -54.3454 -30.333 -178.736 20.6625 86.4215 -24.619 41.7513 -6.39148 -6.93506 -9.54166e-015 -3.97569e-016 -67.1117 67.0312 70.4472 -3.82956 10.8603 -179.724 -8.05517 -4.77083e-015 -3.97569e-016 10.4029 5.54191 -7.74101 90 1.63997e-015 7.95139e-016 -7.22992 -8.76467 175.664 -9.68843 1.59028e-015 5.96354e-016 7.6479 -5.61812 6.20818 90 -5.43552e-016 -1.59028e-015 
206.697 89.5999 -56.9942 -163.446 -85.1059 107.869 -0.296912 -1.71514 -0.905246 -0.621392 -3.42601 -1.82041 -0.621392 -3.42601 -1.82042 -8.30748e-012 -9.0191e-006 -5.27751e-005 9.51029 -2.23282 0.913331 -177.741 -28.7559 -85.3119 -22.88 -40.644 6.71168 -12.1954 -6.36111e-015 -3.18055e-015 -26.9053 -54.3619 -30.3025 -178.736 20.6787 86.4252 -24.596 41.6863 -6.38818 -6.91924 -3.18055e-015 3.97569e-016 -67.1358 67.0021 70.4736 -3.86053 10.8147 -179.745 -8.11625 0 -3.97569e-016 10.4367 5.55232 -7.73004 90 -2.23633e-016 7.95139e-016 -7.16731 -8.73601 175.655 -9.57755 -3.18056e-015 1.98785e-016 7.58397 -5.53705 6.13969 90 -6.49156e-016 -0 
206.67 89.5998 -56.9764 -164.122 -85.131 107.204 -0.287898 -1.71473 -0.905004 -0.603027 -3.42549 -1.8148 -0.603027 -3.42549 -1.81481 -8.30907e-012 -9.0191e-006 -5.27751e-005 9.6344 -2.20655 0.869856 -177.739 -28.8058 -85.3153 -22.9328 -40.6009 6.79839 -12.2274 -3.18055e-015 6.36111e-015 -26.8392 -54.37 -30.2346 -178.743 20.6715 86.444 -24.6131 41.7262 -6.38401 -6.85156 -9.54166e-015 -7.95139e-016 -67.1128 67.0265 70.4487 -3.90502 10.7689 -179.77 -8.1929 0 1.98785e-016 10.4791 5.56584 -7.71908 90 -7.70291e-016 -1.19271e-015 -7.17862 -8.79505 175.615 -9.59579 0 -1.98785e-016 7.58955 -5.54901 6.15905 90 -4.69008e-016 1.59028e-015 
206.644 89.5996 -56.9608 -164.7 -85.1271 106.628 -0.284228 -1.71436 -0.904855 -0.59548 -3.42495 -1.80957 -0.59548 -3.42495 -1.80958 -8.30828e-012 -9.0191e-006 -5.27751e-005 9.70446 -2.18739 0.775544 -177.739 -28.7801 -85.3115 -22.8875 -40.6104 6.91922 -12.2931 -9.54166e-015 -0 -26.8591 -54.3382 -30.2512 -178.742 20.6934 86.4454 -24.6389 41.7967 -6.38591 -6.81835 0 7.95139e-016 -67.1066 67.0331 70.442 -3.95832 10.7221 -179.786 -8.24459 -1.59028e-015 1.98785e-016 10.5052 5.56957 -7.70157 90 8.19987e-016 -1.59028e-015 -7.18874 -8.81312 175.597 -9.55796 -1.59028e-015 3.97569e-016 7.5595 -5.51771 6.14967 90 1.55301e-017 -7.95139e-016 
206.632 89.5998 -56.9203 -165.28 -85.1261 106.048 -0.280414 -1.71393 -0.904773 -0.588581 -3.42427 -1.80709 -0.588581 -3.42427 -1.8071 -8.30748e-012 -9.0191e-006 -5.27751e-005 9.71168 -2.17761 0.766004 -177.732 -28.7688 -85.2953 -22.922 -40.5011 6.99392 -12.3141 -6.36111e-015 -4.77083e-015 -26.828 -54.3281 -30.2175 -178.727 20.6945 86.4024 -24.7012 41.692 -6.324 -6.85199 -3.18055e-015 -1.19271e-015 -67.11 67.0348 70.4449 -4.03828 10.6552 -179.794 -8.315 0 -3.97569e-016 10.5275 5.55415 -7.66388 90 -4.47266e-016 1.19271e-015 -7.19759 -8.80644 175.599 -9.49586 0 -0 7.49926 -5.46037 6.09723 90 -1.06536e-015 -0 
206.617 89.5994 -56.8934 -165.605 -85.1211 105.718 -0.276889 -1.71338 -0.904732 -0.580672 -3.42339 -1.80606 -0.580672 -3.42339 -1.80607 -8.30589e-012 -9.0191e-006 -5.27751e-005 9.72794 -2.15684 0.771409 -177.745 -28.7621 -85.3222 -22.9223 -40.5861 7.16182 -12.2399 3.18055e-015 -1.59028e-015 -26.7841 -54.3583 -30.1756 -178.733 20.6734 86.4151 -24.6779 41.7344 -6.37021 -6.87744 -6.36111e-015 -1.19271e-015 -67.1028 67.0553 70.4355 -4.1151 10.6346 -179.793 -8.40279 0 -5.96354e-016 10.5762 5.55632 -7.63217 90 3.47873e-016 7.95139e-016 -7.2732 -8.874 175.574 -9.58122 -4.77083e-015 -5.96354e-016 7.52704 -5.51482 6.16169 90 3.72721e-016 -0 
206.612 89.5993 -56.867 -165.698 -85.1238 105.615 -0.274959 -1.7126 -0.904705 -0.576858 -3.42019 -1.80824 -0.576858 -3.42019 -1.80825 -8.30748e-012 -9.0191e-006 -5.27751e-005 9.77539 -2.16802 0.814683 -177.73 -28.774 -85.2917 -22.9929 -40.49 7.2085 -12.2266 -3.18055e-015 -3.18055e-015 -26.8477 -54.3297 -30.2382 -178.72 20.6635 86.3765 -24.7419 41.6353 -6.3483 -6.9279 3.18055e-015 3.97569e-016 -67.0317 67.1462 70.3569 -4.18083 10.6282 -179.781 -8.50066 -1.59028e-015 -1.98785e-016 10.6251 5.5735 -7.62246 90 2.48481e-016 -0 -7.298 -8.88104 175.581 -9.59292 -1.59028e-015 -5.96354e-016 7.51166 -5.50535 6.16964 90 7.33019e-016 -7.95139e-016 
206.613 89.5994 -56.8365 -165.84 -85.1241 105.465 -0.269026 -1.70921 -0.904666 -0.564964 -3.41348 -1.81564 -0.564964 -3.41348 -1.81565 -8.30748e-012 -9.0191e-006 -5.27751e-005 9.78112 -2.19836 0.890376 -177.732 -28.7776 -85.2962 -23.0125 -40.4751 7.36642 -12.2334 -9.54166e-015 -6.36111e-015 -26.8808 -54.3478 -30.2752 -178.709 20.6507 86.3446 -24.7403 41.7214 -6.39819 -6.98128 -6.36111e-015 -3.97569e-016 -67.0988 67.0785 70.4298 -4.23031 10.5952 -179.768 -8.53015 -3.18055e-015 3.97569e-016 10.6154 5.55658 -7.60134 90 9.44227e-016 -0 -7.31761 -8.86946 175.594 -9.57732 -1.59028e-015 5.96354e-016 7.48205 -5.48182 6.14748 90 -4.96962e-016 7.95139e-016 
